<svg version="1.1" id="Layer_1" xmlns="http://www.w3.org/2000/svg" xmlns:xlink="http://www.w3.org/1999/xlink" x="0px" y="0px"
	 width="100%" viewBox="0 0 500 500" enable-background="new 0 0 500 500" xml:space="preserve">
<path fill="#000000" opacity="1.000000" stroke="none"
	d="
M271.000000,501.000000
	C180.666687,501.000000 90.833374,501.000000 1.000048,501.000000
	C1.000032,334.333405 1.000032,167.666794 1.000016,1.000138
	C167.666565,1.000092 334.333130,1.000092 500.999756,1.000046
	C500.999847,167.666519 500.999847,334.333038 500.999939,500.999786
	C424.500000,501.000000 348.000000,501.000000 271.000000,501.000000
M194.257797,454.947144
	C196.376160,455.375488 198.479172,455.911743 200.615280,456.215210
	C218.792114,458.797424 236.194366,454.775177 253.032700,448.800446
	C265.842590,444.255127 278.065399,438.045166 290.517792,432.504791
	C309.354767,424.123779 328.245544,415.856415 346.951233,407.190582
	C356.361084,402.831177 363.777100,396.075439 368.531982,386.568115
	C372.027161,379.579529 375.404449,372.433990 379.792786,366.013519
	C386.079407,356.815704 389.004822,346.896973 388.819244,335.936890
	C388.740448,331.285339 388.110596,326.640289 388.094086,321.990967
	C387.986450,291.688690 388.117523,261.384918 387.870941,231.084076
	C387.769440,218.609634 388.084595,205.959900 386.167877,193.709473
	C382.647034,171.206726 377.582092,148.946747 373.220154,126.574013
	C370.439819,112.313583 363.131714,102.030716 349.789764,95.120445
	C340.314331,90.212769 331.844574,83.128494 323.540710,76.271217
	C317.353577,71.161942 310.685303,67.880943 302.869659,67.392181
	C284.915344,66.269409 267.530914,70.027138 249.682739,73.781219
	C248.621689,68.487946 245.492157,70.575447 242.284576,72.667442
	C239.216980,74.668144 236.209946,76.811127 232.966400,78.484795
	C206.364777,92.211266 181.476837,108.356636 159.546051,128.929276
	C148.854416,138.958801 138.027664,148.728287 129.751175,161.027191
	C117.771194,178.829498 108.940598,198.120819 101.282753,218.073654
	C91.598602,243.306107 85.283592,269.342255 84.088074,296.292542
	C82.653770,328.625610 90.878242,358.958099 105.908493,387.532867
	C115.061722,404.934479 127.420532,418.886292 145.617950,427.448090
	C153.241287,431.034851 160.467575,435.771088 167.193253,440.881226
	C175.258636,447.009186 183.589798,452.241302 194.257797,454.947144
z"/>
<path fill="#EBEBEB" opacity="1.000000" stroke="none"
	d="
M193.858292,454.862152
	C183.589798,452.241302 175.258636,447.009186 167.193253,440.881226
	C160.467575,435.771088 153.241287,431.034851 145.617950,427.448090
	C127.420532,418.886292 115.061722,404.934479 105.908493,387.532867
	C90.878242,358.958099 82.653770,328.625610 84.088074,296.292542
	C85.283592,269.342255 91.598602,243.306107 101.282753,218.073654
	C108.940598,198.120819 117.771194,178.829498 129.751175,161.027191
	C138.027664,148.728287 148.854416,138.958801 159.546051,128.929276
	C181.476837,108.356636 206.364777,92.211266 232.966400,78.484795
	C236.209946,76.811127 239.216980,74.668144 242.284576,72.667442
	C245.492157,70.575447 248.621689,68.487946 249.682739,73.781219
	C267.530914,70.027138 284.915344,66.269409 302.869659,67.392181
	C310.685303,67.880943 317.353577,71.161942 323.540710,76.271217
	C331.844574,83.128494 340.314331,90.212769 349.789764,95.120445
	C363.131714,102.030716 370.439819,112.313583 373.220154,126.574013
	C377.582092,148.946747 382.647034,171.206726 386.167877,193.709473
	C388.084595,205.959900 387.769440,218.609634 387.870941,231.084076
	C388.117523,261.384918 387.986450,291.688690 388.094086,321.990967
	C388.110596,326.640289 388.740448,331.285339 388.819244,335.936890
	C389.004822,346.896973 386.079407,356.815704 379.792786,366.013519
	C375.404449,372.433990 372.027161,379.579529 368.531982,386.568115
	C363.777100,396.075439 356.361084,402.831177 346.951233,407.190582
	C328.245544,415.856415 309.354767,424.123779 290.517792,432.504791
	C278.065399,438.045166 265.842590,444.255127 253.032700,448.800446
	C236.194366,454.775177 218.792114,458.797424 200.615280,456.215210
	C198.479172,455.911743 196.376160,455.375488 193.858292,454.862152
M201.365387,103.669571
	C191.845093,110.926117 181.945007,117.742226 172.895920,125.545235
	C160.192917,136.499008 146.980438,147.110275 137.458038,161.208832
	C110.833519,200.628204 94.930847,244.104126 90.896011,291.443817
	C87.723434,328.666901 97.986259,363.037079 117.659355,394.541016
	C124.819305,406.006775 134.878006,414.523926 147.034485,420.876434
	C156.564301,425.856354 165.868057,431.552917 174.426193,438.046204
	C189.899582,449.786255 206.904144,452.213013 225.468735,449.204041
	C242.091171,446.509888 257.360504,440.362427 272.526489,433.249054
	C292.843079,423.719849 313.764496,415.488739 334.287231,406.386932
	C346.428162,401.002411 357.605713,394.348450 363.797333,381.572601
	C367.704529,373.510498 372.629547,365.945618 376.651428,357.933563
	C378.780884,353.691406 381.013275,349.044586 381.336578,344.449402
	C381.963562,335.537842 381.173096,326.533997 381.150940,317.567932
	C381.093323,294.250519 381.202118,270.932587 381.110382,247.615387
	C381.051422,232.634293 382.222351,217.456100 380.233612,202.718231
	C376.945770,178.353241 371.369720,154.304413 367.116425,130.059433
	C364.760315,116.629044 357.969452,107.314034 345.813477,100.686363
	C336.275085,95.485817 327.739899,88.338745 319.127106,81.586899
	C313.975037,77.548042 308.645630,74.030197 302.074646,74.335045
	C290.645416,74.865295 279.257874,76.237190 267.838165,77.049492
	C259.977325,77.608650 252.853012,79.960625 246.614273,84.789978
	C242.283112,88.142708 238.072723,91.651894 233.724945,94.982277
	C232.935211,95.587219 231.742386,95.665932 230.735626,95.987556
	C230.594208,94.938751 230.074966,93.758400 230.385361,92.866913
	C231.175430,90.597824 232.336426,88.457870 233.784454,85.323586
	C222.096832,90.247589 212.250458,97.162140 201.365387,103.669571
z"/>
<path fill="#010101" opacity="1.000000" stroke="none"
	d="
M201.675995,103.484116
	C212.250458,97.162140 222.096832,90.247589 233.784454,85.323586
	C232.336426,88.457870 231.175430,90.597824 230.385361,92.866913
	C230.074966,93.758400 230.594208,94.938751 230.735626,95.987564
	C231.742386,95.665932 232.935211,95.587219 233.724945,94.982277
	C238.072723,91.651894 242.283112,88.142708 246.614273,84.789978
	C252.853012,79.960625 259.977325,77.608650 267.838165,77.049492
	C279.257874,76.237190 290.645416,74.865295 302.074646,74.335045
	C308.645630,74.030197 313.975037,77.548042 319.127106,81.586899
	C327.739899,88.338745 336.275085,95.485817 345.813477,100.686363
	C357.969452,107.314034 364.760315,116.629044 367.116425,130.059433
	C371.369720,154.304413 376.945770,178.353241 380.233612,202.718231
	C382.222351,217.456100 381.051422,232.634293 381.110382,247.615387
	C381.202118,270.932587 381.093323,294.250519 381.150940,317.567932
	C381.173096,326.533997 381.963562,335.537842 381.336578,344.449402
	C381.013275,349.044586 378.780884,353.691406 376.651428,357.933563
	C372.629547,365.945618 367.704529,373.510498 363.797333,381.572601
	C357.605713,394.348450 346.428162,401.002411 334.287231,406.386932
	C313.764496,415.488739 292.843079,423.719849 272.526489,433.249054
	C257.360504,440.362427 242.091171,446.509888 225.468735,449.204041
	C206.904144,452.213013 189.899582,449.786255 174.426193,438.046204
	C165.868057,431.552917 156.564301,425.856354 147.034485,420.876434
	C134.878006,414.523926 124.819305,406.006775 117.659355,394.541016
	C97.986259,363.037079 87.723434,328.666901 90.896011,291.443817
	C94.930847,244.104126 110.833519,200.628204 137.458038,161.208832
	C146.980438,147.110275 160.192917,136.499008 172.895920,125.545235
	C181.945007,117.742226 191.845093,110.926117 201.675995,103.484116
z"/>
</svg>