<?xml version="1.0" standalone="no"?>
<!DOCTYPE svg PUBLIC "-//W3C//DTD SVG 20010904//EN"
 "http://www.w3.org/TR/2001/REC-SVG-20010904/DTD/svg10.dtd">
<svg version="1.0" xmlns="http://www.w3.org/2000/svg"
 width="300.000000pt" height="300.000000pt" viewBox="0 0 300.000000 300.000000"
 preserveAspectRatio="xMidYMid meet">
<g transform="translate(0.000000,300.000000) scale(0.100000,-0.100000)"
fill="#000000" stroke="none">
<path d="M1650 2599 c-30 -5 -77 -14 -104 -19 -35 -7 -53 -7 -62 1 -10 8 -24
5 -56 -16 -24 -14 -96 -58 -162 -96 -208 -122 -409 -296 -500 -433 -174 -261
-291 -649 -272 -900 12 -154 50 -296 116 -426 70 -139 134 -208 253 -271 45
-24 107 -63 138 -87 83 -61 142 -85 229 -90 91 -5 218 18 310 58 633 270 615
259 701 420 28 52 59 109 68 125 14 27 16 83 15 505 l0 475 -38 180 c-45 217
-71 312 -96 343 -10 12 -59 48 -108 80 -49 31 -112 76 -141 99 -29 23 -69 47
-89 53 -43 12 -124 11 -202 -1z m189 -10 c36 -7 64 -23 105 -59 30 -26 92 -70
136 -96 45 -27 90 -60 100 -74 28 -39 45 -101 89 -317 l41 -201 2 -474 3 -474
-36 -60 c-20 -32 -50 -86 -67 -120 -54 -107 -100 -138 -397 -263 -93 -40 -199
-86 -235 -103 -82 -38 -194 -68 -288 -75 -104 -8 -183 15 -275 82 -40 28 -103
69 -142 90 -98 54 -129 79 -180 147 -64 85 -121 212 -156 346 -51 195 -42 400
28 632 41 136 109 297 169 400 95 159 315 362 528 485 48 28 114 66 149 86 47
28 64 34 69 24 6 -11 17 -10 55 0 108 29 232 39 302 24z"/>
<path d="M1617 2554 c-89 -14 -142 -38 -199 -92 -15 -14 -30 -23 -34 -20 -7 8
25 58 37 58 5 0 9 5 9 10 0 26 -244 -122 -368 -223 -227 -185 -324 -320 -428
-599 -140 -375 -137 -660 11 -963 58 -118 121 -188 221 -244 44 -24 113 -68
154 -96 41 -29 97 -60 123 -69 102 -34 280 -11 427 57 41 19 152 67 245 107
196 83 279 127 317 167 24 25 77 114 140 235 19 35 19 57 15 505 l-4 468 -36
172 c-65 311 -66 315 -194 390 -37 23 -89 60 -115 82 -84 74 -137 83 -321 55z
m246 -15 c12 -7 45 -31 72 -54 28 -23 79 -59 115 -80 116 -68 121 -77 166
-292 59 -280 57 -256 58 -748 l1 -460 -54 -95 c-111 -195 -97 -185 -431 -329
-319 -139 -319 -138 -400 -155 -155 -33 -247 -16 -355 64 -37 28 -104 69 -148
93 -109 58 -176 132 -239 264 -138 288 -140 568 -6 928 82 220 169 366 284
475 149 141 249 217 405 305 l56 32 -10 -28 c-17 -43 -3 -45 45 -7 78 63 112
78 209 92 101 16 197 13 232 -5z"/>
</g>
</svg>
